<svg xmlns="http://www.w3.org/2000/svg" viewBox="0 0 156.29 156.29"><defs><style>.cls-1{fill:none;stroke:#fe7e00;stroke-miterlimit:10;}.cls-2{fill:#f15a24;}</style></defs><title>Ativo 1</title><g id="Camada_2" data-name="Camada 2"><g id="Layer_1" data-name="Layer 1"><circle class="cls-1" cx="78.14" cy="78.14" r="77.64"/><path class="cls-2" d="M94.36,94.22c-4.67-.79-11.08-5.33-11.08-7.3V82c0-1.85,2.51-5.33,3.58-8.52.1-.3.75,0,1.37-.71,1.18-1.46,1.36-3.67,1.62-4.67.43-1.58-1.48-1.65-1.48-1.65s1.43-8.29.16-13.52c-1.72-7.13-11-10.73-14.58-10.73S61.1,45.75,59.37,52.88c-1.26,5.23.19,13.52.19,13.52s-1.84.07-1.42,1.65c.27,1,.58,3.21,1.76,4.67.63.75,1,.41,1.1.71,1.07,3.19,3.58,6.67,3.58,8.52v5c0,2-6.41,6.51-11.09,7.3-6,1-9,5.18-7.56,15.53.7,5.17,14.35,7.4,27.87,7.2,13.51.2,27.36-2,28.06-7.2C103.28,99.4,100.37,95.25,94.36,94.22Z"/><path class="cls-2" d="M126.85,51.51A5.48,5.48,0,0,0,121.37,46H101.63a5.48,5.48,0,0,0-5.49,5.48v11A5.48,5.48,0,0,0,101.63,68h19.74a5.48,5.48,0,0,0,5.48-5.48Zm-25.28-3.29h19.74a3.29,3.29,0,0,1,3.09,2.19H98.48A3.29,3.29,0,0,1,101.57,48.22Zm23.09,14.26a3.34,3.34,0,0,1-3.35,3.29H101.57a3.25,3.25,0,0,1-3.23-3.29V54.8h26.32Z"/><path class="cls-2" d="M101.57,59.19h8.77a1.1,1.1,0,0,0,0-2.2h-8.77a1.1,1.1,0,0,0,0,2.2Z"/><path class="cls-2" d="M119.12,59.19h2.19a1.1,1.1,0,0,0,0-2.2h-2.19a1.1,1.1,0,0,0,0,2.2Z"/><path class="cls-2" d="M101.57,63.57H106a1.1,1.1,0,0,0,0-2.19h-4.39a1.1,1.1,0,0,0,0,2.19Z"/></g></g></svg>