<svg xmlns="http://www.w3.org/2000/svg" viewBox="0 0 156.29 156.29"><defs><style>.cls-1{fill:none;stroke:#fe7e00;stroke-miterlimit:10;}.cls-2{fill:#f15a24;}</style></defs><title>Ativo 1</title><g id="Camada_2" data-name="Camada 2"><g id="Layer_1" data-name="Layer 1"><circle class="cls-1" cx="78.14" cy="78.14" r="77.64"/><path class="cls-2" d="M77.11,86.08,85,78.24,74.52,67.81l-7.84,7.84A23.5,23.5,0,0,0,62.77,74V62.94H48V74a24.66,24.66,0,0,0-3.9,1.62l-7.85-7.84L25.83,78.24l7.85,7.84A23.5,23.5,0,0,0,32.06,90H21v14.75H32.06a23.5,23.5,0,0,0,1.62,3.91l-7.85,7.84,10.44,10.43,7.84-7.84A25.22,25.22,0,0,0,48,120.7v11.09H62.77V120.7a24.38,24.38,0,0,0,3.91-1.62l7.84,7.84L85,116.49l-7.84-7.84a23.12,23.12,0,0,0,1.61-3.91h11.1V90H78.72A23.46,23.46,0,0,0,77.11,86.08Zm-21.72,26A14.76,14.76,0,1,1,70.14,97.37,14.75,14.75,0,0,1,55.39,112.12Z"/><path class="cls-2" d="M129,53V42.7h-7.76A16.24,16.24,0,0,0,120.08,40l5.47-5.49-7.29-7.3-5.48,5.49a16.34,16.34,0,0,0-2.73-1.13V23.79H99.74v7.76A16.45,16.45,0,0,0,97,32.68L91.52,27.2l-7.3,7.29L89.71,40a16.24,16.24,0,0,0-1.13,2.72H80.82V53h7.76a16.34,16.34,0,0,0,1.13,2.73l-5.49,5.48,7.31,7.3L97,63.05a17.91,17.91,0,0,0,2.74,1.13v7.75h10.31V64.18a17.23,17.23,0,0,0,2.73-1.13l5.48,5.48,7.3-7.3-5.48-5.47A16.45,16.45,0,0,0,121.21,53Zm-24.08,5.16a10.32,10.32,0,1,1,10.32-10.31A10.32,10.32,0,0,1,104.89,58.18Z"/></g></g></svg>