<svg xmlns="http://www.w3.org/2000/svg" viewBox="0 0 156.29 156.29"><defs><style>.cls-1{fill:none;stroke:#fe7e00;stroke-miterlimit:10;}.cls-2{fill:#f15a24;}</style></defs><title>Ativo 1</title><g id="Camada_2" data-name="Camada 2"><g id="Layer_1" data-name="Layer 1"><circle class="cls-1" cx="78.14" cy="78.14" r="77.64"/><path class="cls-2" d="M97,77.74c-12.83,0-23.21,7-23.21,15.61,0,3.84,3.23,8.21,6.64,10.93l-3.31,9.38,10-6.18A32.56,32.56,0,0,0,97,109c12.8,0,23.18-7,23.18-15.61S109.76,77.74,97,77.74Z"/><path class="cls-2" d="M79.56,42.63C57.14,42.63,39,55.39,39,71.13c0,7,5.64,15,11.59,20L44.77,108.2,62.38,96.92a54.48,54.48,0,0,0,7.25,1.8A13.68,13.68,0,0,1,68,92.65c0-11.25,13-20.36,29-20.36,8.58,0,16.23,2.67,21.54,6.84a20.85,20.85,0,0,0,1.64-8C120.14,55.39,102,42.63,79.56,42.63Z"/></g></g></svg>