<svg id="Camada_1" data-name="Camada 1" xmlns="http://www.w3.org/2000/svg" viewBox="0 0 32.03 32"><defs><style>.cls-1{fill:#fe7e00;}.cls-2{fill:#f13c00;}.cls-3{fill:#f17900;}.cls-4{fill:#cd1a00;}.cls-5{fill:none;}</style></defs><title>icone</title><path class="cls-1" d="M15.26,5.64,21.2,2.74l5-2.4c.49-.24.48-.24.52.28q.43,5.63.88,11.27.37,4.81.73,9.63c.21,2.78.42,5.56.65,8.34,0,.38-.07.46-.43.41l-7.64-.95-8.3-1c-.79-.1-1.59-.17-2.38-.29a.58.58,0,0,0-.62.28c-.88,1.16-1.76,2.31-2.65,3.47a.35.35,0,0,1-.2.14l.68-2.11c.16-.51.32-1,.5-1.52.07-.2.1-.31-.19-.34-1.38-.1-2.75-.24-4.12-.34-.33,0-.45-.1-.45-.46q0-7.62,0-15.24a.57.57,0,0,1,.39-.59L8.75,8.76a2.71,2.71,0,0,1,0,1.39c-.13,1.82-.28,3.64-.42,5.45s-.27,3.46-.41,5.19Q7.76,23,7.6,25.28c0,.32.13.34.37.32,1.11-.11,2.21-.26,3.32-.4l10.3-1.26a.84.84,0,0,1,.84.37l1.7,2.23c-.23-.69-.45-1.34-.64-2s-.08-.65.46-.7c.84-.09,1.68-.14,2.53-.21.38,0,.52-.17.52-.55Q27,17.54,27,12a.73.73,0,0,0-.49-.71c-1.59-.8-3.22-1.52-4.8-2.36-.13-.06-.26-.11-.39-.17C19.44,7.83,17.55,6.9,15.65,6,15.49,5.93,15.26,5.9,15.26,5.64Z" transform="translate(0 -0.04)"/><path class="cls-2" d="M21.68,8.79l5.11,2.49a.53.53,0,0,1,.34.55q0,5.72,0,11.45c0,.38-.13.47-.49.49-1,.06-1.91.18-2.86.24-.31,0-.29.14-.21.36.25.76.49,1.52.73,2.28a.27.27,0,0,1,0,.3L23,25.23l-.72-1a.53.53,0,0,0-.57-.22c-1.09.16-2.19.27-3.29.41l-3.33.42-3.29.39c-1.07.13-2.13.26-3.2.41a4.72,4.72,0,0,0-.88.1c-.24.08-.27-.11-.25-.29.11-1.28.24-2.56.34-3.83.08-.93.12-1.86.19-2.78.11-1.38.24-2.76.34-4.15.05-.77.11-1.53.18-2.3.12-1.22.18-2.44.27-3.66h0a3.17,3.17,0,0,1,1.18-.69c1.55-.71,3.06-1.49,4.6-2.22a1.77,1.77,0,0,1,.58-.22h.16a3,3,0,0,0,.82.42l5.15,2.53a.5.5,0,0,1,.1.09c0,.23-.19.28-.34.36-2.66,1.32-5.34,2.6-8,3.89-.62.3-1.22.61-1.84.9a.63.63,0,0,0-.38.64q0,3.21,0,6.41c0,.36.16.52.51.5a10.91,10.91,0,0,1,1.24.11c.37,0,.47.19.38.54s-.2.62-.31,1c.26-.37.54-.69.78-1a.92.92,0,0,1,1-.4c1.52.2,3,.37,4.55.56l3.18.39c.45.05.51,0,.49-.43,0-1-.14-2-.21-2.93-.1-1.33-.21-2.66-.32-4s-.21-2.75-.32-4.12c0-.58-.11-1.15-.12-1.73A.68.68,0,0,1,21.68,8.79Z" transform="translate(0 -0.04)"/><path class="cls-3" d="M15.1,5.64A4.82,4.82,0,0,1,14,6.25c-1.74.85-3.49,1.68-5.23,2.52l.46-6,2.4,1.16Z" transform="translate(0 -0.04)"/><path class="cls-4" d="M21.68,8.79c.05,1.61.21,3.21.35,4.81.09,1,.11,1.92.19,2.87.11,1.32.24,2.64.34,4,.05.65.06,1.3.1,1.95,0,.23,0,.35-.3.31-.92-.13-1.84-.22-2.76-.33l-2.5-.3-2.72-.34a.87.87,0,0,0-1,.39,7.26,7.26,0,0,1-1.08,1.29c.15-.46.29-.91.45-1.36s0-.44-.31-.42c-.49,0-1-.13-1.46-.1-.24,0-.37-.11-.37-.39q0-3.45,0-6.9a.41.41,0,0,1,.27-.41L16,11.35l5.3-2.6s0,0,.06-.07A.46.46,0,0,1,21.68,8.79Z" transform="translate(0 -0.04)"/><rect class="cls-5" y="0.14" width="32" height="31.73"/><rect class="cls-5" x="0.03" width="32" height="32"/></svg>