<svg xmlns="http://www.w3.org/2000/svg" viewBox="0 0 376 549.1"><defs><style>.cls-1{fill:none;}.cls-2{fill:#fe7f00;}.cls-3{fill:#f13c00;}.cls-4{fill:#f17900;}.cls-5{fill:#fea247;}.cls-6{fill:#cd1a00;}.cls-7{fill:#f57a13;}</style></defs><title>Ativo 3</title><g id="Camada_2" data-name="Camada 2"><g id="Camada_1-2" data-name="Camada 1"><path class="cls-1" d="M337,370.18q-149.74,0-299.57,0V0Q187.13,0,337,0Z"/><path class="cls-2" d="M84.06,354.22c4.35-13.66,8.71-27.33,13.21-41.45l-53.86-4.71V128.81L105.9,98.32c1.9,1.46,1.51,3.51,1.38,5.48-2.22,33.07-5.42,66.07-7.62,99.14-1.74,25.95-4.12,51.87-5.87,77.83-.09,1.45-.5,3,.41,4.78,3.2.79,6.64.25,10-.19,47-6.14,94.17-11.31,141.17-17.53,7-.92,11.64.78,15.68,6.54,4.85,6.9,10.14,13.5,15.5,20.47-2.66-8.72-6.15-16.86-7.24-25.24,3.23-3.42,6.82-3.33,10.25-3.66,7.91-.76,15.88-.87,23.78-1.9,1.62-.21,3.34-.08,5.42-1.2.59-44.18.49-88.36.48-133.13-19.07-10.53-39-18.71-58-28.8-1.76-.61-3.33-1.61-5-2.33Q214.82,83,183.15,67.94c-1.9-.91-4.69-1.28-4.51-4.45l126.93-62c8.72,112.66,17.39,224.56,26.12,337.36L117.9,312.8q-16.41,21.29-32.75,42.51C84.19,355.54,83.71,355.29,84.06,354.22Z"/><path class="cls-3" d="M250.45,99.35l60.33,28.37V265.26l-40.54,3.43,11,34.91-27-34.83L91.15,288.66C96.1,224.86,101,161.59,105.9,98.32l0,.06a12.07,12.07,0,0,1,5.33-4.27c20.38-9.64,40.62-19.58,60.89-29.45a14.28,14.28,0,0,1,4.78-1.26l1.77.09,67.81,33.88c.12,3-2.5,3.69-4.42,4.66-18.66,9.38-37.57,18.25-56.32,27.44-17.27,8.46-34.69,16.6-51.86,25.25a12.55,12.55,0,0,0-5,4c-.2,25.75-.08,52.36-.08,79.14,8.06,2.2,15.85,1.11,23.27,3.37,2.06,5.6-1.67,10-2.46,14.53a129.32,129.32,0,0,1,9.36-12.18c2.9-3.59,6.86-2.74,10.61-2.27,13.32,1.68,26.6,3.62,40,5.07,14.33,1.56,28.6,3.62,42.92,5.3,2.1.25,4.28.69,6.43-.53,1.33-2.77.88-5.81.62-8.71-1.62-18-3.41-35.95-4.47-54-1.17-19.68-2.94-39.3-4.46-58.95-.52-6.77-.77-13.55-1.51-20.31C248.62,105.9,247.62,102.29,250.45,99.35Z"/><path class="cls-4" d="M176.87,63.4l-71,35L111,30.94Z"/><path class="cls-5" d="M84.06,354.22l1.09,1.09c-.49.67-1,1.33-3,4.05Z"/><path class="cls-6" d="M261.52,254.53l-99.74-12.18L144.9,264.16l6.93-21.89-24.55-2V156.45L250.22,95.64Q255.88,175.08,261.52,254.53Z"/><path class="cls-1" d="M0,549.1v-165H376v165Zm303.09-62-23.37,50.5c-3.11-5-5.86-9.48-8.64-14,.67-.63,1.14-1.1,1.63-1.54,6.36-5.79,7.83-13,5.52-21s-7.93-12.62-16.3-13.19c-6.79-.46-13.62-.39-20.43-.54-2.11,0-4.22,0-6.37,0V543h14V527.22h7.36c3.23,5.49,6.34,10.75,9.27,15.72H292l3.42-6.41H317.2l3.33,6.4h47.34V530.39h-20V487.75H333.76v49.81l-.84.2L309.4,487.09Zm31.09-5.86c19.15,0,35.59-13.22,35.61-36,0-24.54-18.28-36.5-36.48-36.16-17.93.34-35,12.43-35.12,36C298.09,467.73,314.66,481.45,334.18,481.23ZM9.37,410.12v69.59H27.69c0-5.68-.05-11.12,0-16.56S27.43,452.48,28,446c6.45,6.33,12,11.79,17.55,17.23S57,474.41,62.42,479.69h6.26V410.41H50.79v33.74l-35.07-34Zm177.18,43.2a10.19,10.19,0,0,0-1.25,2c-4.09,11.11-22,12.23-28.64,1.37a22.61,22.61,0,0,1-2.74-17.68c1.58-6.72,6.59-12.11,12.91-13,8.12-1.1,14.3.25,18.15,7.92.29.58.67,1.12,1,1.65h17.21c-1.7-10.19-6.58-17.65-15.51-22.23a36.57,36.57,0,0,0-27.57-2.65c-27.89,8-29.78,38.65-19.92,54.07,11,17.15,36.2,20.72,52,9,6.69-5,10.35-11.84,11.09-20.52Zm-109.91-43a4.37,4.37,0,0,0-.45,1.19c0,15.14-.25,30.29,0,45.42.16,9.2,4.61,16.21,13,20.26a41.58,41.58,0,0,0,9.86,3.23c17.91,3.57,32.62-8.54,32.63-26.71q0-19.47,0-38.94c0-1.45-.14-2.9-.22-4.37H114.13v5.21c0,13.31-.07,26.63,0,39.94,0,3.12-.87,5.58-3.47,7.24a12.22,12.22,0,0,1-12.78.64c-3.94-2-4.87-5.44-4.83-9.59.12-12.82,0-25.63,0-38.45v-5.07Zm175.92,0c-.94,14.61-.52,65.5.54,69.32h43.67V464h-26.3V451.84h23.2V436H270.43V425.9h25.36V410.32ZM64.06,507.85c-1.29-6.54-4-11.83-9.21-15.72-9.56-7.11-25-6.85-34.61.29C9.67,500.28,6.89,514.5,11,526.08c6.15,17.18,28.18,22.83,42.87,13.22,5.94-3.89,9.39-9.57,10.16-17.09H50.51c-3.23,6.72-6.29,8.52-12.82,8.61-5.25.07-9.48-2.64-11.85-7.69-2.49-5.3-2.34-10.49-.07-15.87,3.71-8.78,18.16-10.2,23-1.74.48.84,1,1.66,1.42,2.33Zm143.21-97.61c-.94,13.14-.53,65.87.49,69.52h42.09V464H224.93V410.24ZM97.53,487.72c-.08,1.91-.21,3.52-.21,5.14,0,10.16,0,20.32,0,30.48,0,2.65-.33,5.11-2.87,6.45a10.89,10.89,0,0,1-10.53.32c-3.27-1.68-3.87-4.61-3.83-8,.1-10.16,0-20.32,0-30.48,0-1.28-.19-2.56-.29-3.94H67.38a4.33,4.33,0,0,0-.45,1.18c0,12.49-.11,25,0,37.48.06,5.73,3,10.17,7.56,13.38A24.48,24.48,0,0,0,94,543.65c11.27-2.31,17.72-9.86,17.22-20.94-.46-10-.1-20-.1-30v-5Zm117.78-.09v5.48c0,10,0,20,0,30,0,2.39,0,4.79-2.25,6.27a10.79,10.79,0,0,1-10.45,1.06c-3.62-1.48-4.56-4.39-4.53-8.07.11-10.32.06-20.65,0-31a32,32,0,0,0-.37-3.59H185c0,13.34-.15,26.33.07,39.3.09,5.52,3.21,9.73,7.67,12.79a24.46,24.46,0,0,0,18.08,4c11.22-1.74,19-9.2,18.45-20.9-.47-10.47-.09-21-.11-31.48,0-1.26-.22-2.52-.34-3.85Zm-58.92,12.76V543h14.35V500.1h13.08V487.66H143.23v12.73ZM151,530.3H130.85V487.75H117.12v55.12H151Zm-41.4-125.25,10.71-12.5-15.8-5.42c-2.75,5.93-5.74,11.5-7.78,17.92Z"/><path class="cls-7" d="M303.09,487.09h6.31l23.52,50.67.84-.2V487.75h14.13v42.64h20v12.54H320.53l-3.33-6.4H295.43L292,542.94H265.79c-2.93-5-6-10.23-9.27-15.72h-7.36V543h-14V487.41c2.15,0,4.26,0,6.37,0,6.81.15,13.64.08,20.43.54,8.37.57,14,5.23,16.3,13.19s.84,15.16-5.52,21c-.49.44-1,.91-1.63,1.54,2.78,4.48,5.53,8.94,8.64,14Zm-53.87,27c3.31,0,6.43.08,9.53,0,3.79-.13,6-2.43,6.26-6.27.28-4.22-1.7-7.14-5.54-7.48-3.39-.29-6.83-.06-10.25-.06Zm63.23,9.81-6.25-14.44-6.08,14.44Z"/><path class="cls-7" d="M334.18,481.23c-19.52.22-36.09-13.5-36-36.14.11-23.6,17.19-35.69,35.12-36,18.2-.34,36.5,11.62,36.48,36.16C369.77,468,353.33,481.25,334.18,481.23Zm17.12-36.78c0-.29,0-1.12-.1-1.95-.61-8.55-6.18-14.57-14.91-16.1-7.39-1.3-15.23,3.27-18.32,10.68-1.79,4.31-1.61,8.83-.87,13.24,1.55,9.31,11.35,15.57,20.54,13.4C346.53,461.62,351.37,455,351.3,444.45Z"/><path class="cls-7" d="M9.37,410.12h6.35l35.07,34V410.41H68.68v69.28H62.42c-5.42-5.28-11.13-10.84-16.83-16.42S34.49,452.37,28,446c-.61,6.44-.27,11.79-.33,17.11s0,10.88,0,16.56H9.37Z"/><path class="cls-7" d="M186.55,453.32h16.69c-.74,8.68-4.4,15.53-11.09,20.52-15.77,11.73-41,8.16-52-9-9.86-15.42-8-46.09,19.92-54.07a36.57,36.57,0,0,1,27.57,2.65c8.93,4.58,13.81,12,15.51,22.23H186c-.32-.53-.7-1.07-1-1.65-3.85-7.67-10-9-18.15-7.92-6.32.85-11.33,6.24-12.91,13a22.61,22.61,0,0,0,2.74,17.68c6.6,10.86,24.55,9.74,28.64-1.37A10.19,10.19,0,0,1,186.55,453.32Z"/><path class="cls-7" d="M76.64,410.33H93.13v5.07c0,12.82.08,25.63,0,38.45,0,4.15.89,7.61,4.83,9.59a12.22,12.22,0,0,0,12.78-.64c2.6-1.66,3.5-4.12,3.47-7.24-.11-13.31,0-26.63,0-39.94v-5.21h17.33c.08,1.47.22,2.92.22,4.37q0,19.47,0,38.94c0,18.17-14.72,30.28-32.63,26.71a41.58,41.58,0,0,1-9.86-3.23c-8.38-4.05-12.83-11.06-13-20.26-.27-15.13,0-30.28,0-45.42A4.37,4.37,0,0,1,76.64,410.33Z"/><path class="cls-7" d="M252.56,410.32h43.23V425.9H270.43V436h23.24v15.89h-23.2V464h26.3v15.67H253.1C252,475.82,251.62,424.93,252.56,410.32Z"/><path class="cls-7" d="M64.06,507.85H50.23c-.41-.67-.94-1.49-1.42-2.33-4.88-8.46-19.33-7-23,1.74-2.27,5.38-2.42,10.57.07,15.87,2.37,5,6.6,7.76,11.85,7.69,6.53-.09,9.59-1.89,12.82-8.61H64.07c-.77,7.52-4.22,13.2-10.16,17.09-14.69,9.61-36.72,4-42.87-13.22-4.15-11.58-1.37-25.8,9.2-33.66,9.62-7.14,25.05-7.4,34.61-.29C60.08,496,62.77,501.31,64.06,507.85Z"/><path class="cls-7" d="M207.27,410.24h17.66V464h24.92v15.81H207.76C206.74,476.11,206.33,423.38,207.27,410.24Z"/><path class="cls-7" d="M97.53,487.72h13.6v5c0,10-.36,20,.1,30,.5,11.08-6,18.63-17.22,20.94a24.48,24.48,0,0,1-19.51-3.93c-4.61-3.21-7.5-7.65-7.56-13.38-.12-12.49,0-25,0-37.48a4.33,4.33,0,0,1,.45-1.18H79.83c.1,1.38.29,2.66.29,3.94,0,10.16.08,20.32,0,30.48,0,3.4.56,6.33,3.83,8a10.89,10.89,0,0,0,10.53-.32c2.54-1.34,2.89-3.8,2.87-6.45-.06-10.16,0-20.32,0-30.48C97.32,491.24,97.45,489.63,97.53,487.72Z"/><path class="cls-7" d="M215.31,487.63h13.47c.12,1.33.33,2.59.34,3.85,0,10.5-.36,21,.11,31.48.52,11.7-7.23,19.16-18.45,20.9a24.46,24.46,0,0,1-18.08-4c-4.46-3.06-7.58-7.27-7.67-12.79-.22-13-.07-26-.07-39.3h12.78a32,32,0,0,1,.37,3.59c0,10.33.09,20.66,0,31,0,3.68.91,6.59,4.53,8.07a10.79,10.79,0,0,0,10.45-1.06c2.25-1.48,2.25-3.88,2.25-6.27,0-10,0-20,0-30Z"/><path class="cls-7" d="M156.39,500.39H143.23V487.66h40.59V500.1H170.74V543H156.39Z"/><path class="cls-7" d="M151,530.3v12.57H117.12V487.75h13.73V530.3Z"/><path class="cls-7" d="M109.59,405.05H96.72c2-6.42,5-12,7.78-17.92l15.8,5.42Z"/><path class="cls-1" d="M249.22,514.1V500.26c3.42,0,6.86-.23,10.25.06,3.84.34,5.82,3.26,5.54,7.48-.25,3.84-2.47,6.14-6.26,6.27C255.65,514.18,252.53,514.1,249.22,514.1Z"/><path class="cls-1" d="M312.45,523.91H300.12l6.08-14.44Z"/><path class="cls-1" d="M351.3,444.45c.07,10.54-4.77,17.17-13.66,19.27-9.19,2.17-19-4.09-20.54-13.4-.74-4.41-.92-8.93.87-13.24,3.09-7.41,10.93-12,18.32-10.68,8.73,1.53,14.3,7.55,14.91,16.1C351.26,443.33,351.29,444.16,351.3,444.45Z"/></g></g></svg>