<svg xmlns="http://www.w3.org/2000/svg" viewBox="0 0 596.57 249.57"><defs><style>.cls-1{fill:none;}.cls-2{fill:#fe7f00;}.cls-3{fill:#f13c00;}.cls-4{fill:#f17900;}.cls-5{fill:#fea247;}.cls-6{fill:#cd1a00;}.cls-7{fill:#f57a13;}</style></defs><title>Ativo 2</title><g id="Camada_2" data-name="Camada 2"><g id="Camada_1-2" data-name="Camada 1"><path class="cls-1" d="M202,249.56H0V0Q100.92,0,202,0Z"/><path class="cls-2" d="M31.44,238.8c2.93-9.21,5.87-18.42,8.9-27.94L4,207.68V86.84L46.16,66.28c1.28,1,1,2.37.93,3.7-1.5,22.29-3.65,44.54-5.14,66.83-1.17,17.5-2.78,35-4,52.47a5.43,5.43,0,0,0,.27,3.23,18.62,18.62,0,0,0,6.77-.13c31.7-4.14,63.48-7.63,95.17-11.82,4.69-.62,7.84.53,10.57,4.41,3.26,4.65,6.84,9.1,10.45,13.8-1.79-5.88-4.15-11.37-4.88-17,2.17-2.31,4.59-2.25,6.9-2.47,5.34-.52,10.71-.59,16-1.29a8.82,8.82,0,0,0,3.65-.8c.4-29.79.33-59.57.33-89.75C170.41,80.34,157,74.83,144.15,68c-1.18-.41-2.25-1.09-3.4-1.57Q119.59,55.95,98.24,45.8c-1.28-.61-3.16-.86-3-3L180.77,1c5.88,76,11.72,151.39,17.61,227.44L54.25,210.88,32.17,239.54C31.52,239.69,31.2,239.52,31.44,238.8Z"/><path class="cls-3" d="M143.61,67,184.28,86.1v92.73L157,181.14c2.33,7.44,4.54,14.45,7.39,23.54l-18.17-23.49L36.22,194.6c3.33-43,6.63-85.66,9.94-128.32l0,0a8,8,0,0,1,3.6-2.87C63.48,57,77.12,50.24,90.79,43.59A9.79,9.79,0,0,1,94,42.74l1.2.06,45.71,22.84c.08,2.06-1.68,2.49-3,3.14-12.58,6.33-25.32,12.31-38,18.5-11.64,5.7-23.38,11.2-35,17A8.49,8.49,0,0,0,61.6,107c-.13,17.36-.05,35.3-.05,53.35,5.43,1.48,10.69.75,15.69,2.27,1.39,3.78-1.13,6.75-1.66,9.8a86.88,86.88,0,0,1,6.31-8.21c2-2.42,4.63-1.85,7.15-1.53,9,1.13,17.94,2.44,26.94,3.42,9.66,1.05,19.28,2.44,28.93,3.57,1.42.17,2.89.47,4.34-.36.89-1.87.59-3.91.41-5.87-1.09-12.12-2.29-24.24-3-36.38-.79-13.27-2-26.5-3-39.75-.36-4.56-.53-9.13-1-13.69C142.37,71.39,141.7,69,143.61,67Z"/><path class="cls-4" d="M94,42.74,46.14,66.32c1.14-14.92,2.28-29.84,3.47-45.46Z"/><path class="cls-5" d="M31.44,238.8l.73.74-2,2.73Z"/><path class="cls-6" d="M151.08,171.59l-67.25-8.21L72.45,178.09c1.88-5.93,3.22-10.16,4.67-14.76L60.57,162V105.48l82.88-41Q147.26,118,151.08,171.59Z"/><path class="cls-1" d="M220.57,204.48v-165h376v165Zm303.09-62C516,159.08,508.25,175.75,500.29,193l-8.64-14,1.63-1.54c6.36-5.79,7.83-13,5.52-20.94s-7.93-12.62-16.3-13.19c-6.79-.47-13.62-.4-20.43-.54-2.11,0-4.22,0-6.37,0v55.58h14V182.59h7.36l9.27,15.73h26.22c1.29-2.41,2.44-4.57,3.42-6.42h21.77c1.25,2.4,2.38,4.57,3.33,6.41h47.34V185.76h-20V143.12H554.33v49.81l-.84.2L530,142.47Zm31.09-5.86c19.15,0,35.6-13.23,35.61-36,0-24.55-18.28-36.5-36.47-36.16-17.94.33-35,12.43-35.13,36C518.66,123.1,535.23,136.82,554.75,136.61ZM229.94,65.5v69.59h18.32c0-5.68,0-11.13,0-16.57s-.28-10.66.33-17.11c6.45,6.34,12,11.8,17.55,17.24s11.41,11.13,16.83,16.41h6.26V65.78H271.36V99.52l-35.07-34Zm177.18,43.2a10.07,10.07,0,0,0-1.25,2c-4.09,11.12-22,12.24-28.64,1.37a22.58,22.58,0,0,1-2.74-17.67c1.58-6.73,6.59-12.11,12.91-13,8.12-1.09,14.3.25,18.15,7.93.29.58.67,1.11,1,1.65h17.21c-1.7-10.19-6.58-17.65-15.51-22.23a36.52,36.52,0,0,0-27.57-2.65c-27.89,8-29.78,38.64-19.92,54.07,11,17.15,36.2,20.71,52,9,6.69-5,10.35-11.84,11.09-20.51Zm-109.91-43a4.89,4.89,0,0,0-.45,1.19c0,15.14-.25,30.29,0,45.43.16,9.2,4.61,16.2,13,20.25a41.75,41.75,0,0,0,9.86,3.24c17.91,3.56,32.62-8.55,32.63-26.71q0-19.47,0-38.94c0-1.45-.14-2.91-.22-4.38H334.7V71c0,13.31-.07,26.62,0,39.93,0,3.12-.87,5.59-3.47,7.25a12.22,12.22,0,0,1-12.78.64c-3.94-2-4.87-5.45-4.83-9.6.12-12.81,0-25.63,0-38.44V65.7Zm175.92,0c-.94,14.62-.52,65.51.54,69.32h43.67V119.34H491V107.21h23.2V91.33H491V81.27h25.36V65.69Zm-188.5,97.53c-1.29-6.53-4-11.83-9.21-15.72-9.56-7.1-25-6.85-34.6.3-10.58,7.86-13.36,22.07-9.21,33.65,6.15,17.18,28.19,22.84,42.87,13.23,5.94-3.89,9.39-9.57,10.16-17.09H271.08c-3.23,6.72-6.29,8.52-12.82,8.61-5.25.07-9.48-2.64-11.85-7.7-2.49-5.29-2.34-10.49-.07-15.86,3.71-8.79,18.16-10.2,23-1.74.48.84,1,1.66,1.42,2.32Zm143.21-97.6c-.94,13.14-.53,65.87.49,69.52h42.09V119.32H445.5V65.62ZM318.1,143.1c-.08,1.9-.21,3.52-.21,5.13,0,10.17-.05,20.33,0,30.49,0,2.65-.33,5.1-2.87,6.44a10.89,10.89,0,0,1-10.53.33c-3.27-1.69-3.87-4.61-3.83-8,.1-10.16,0-20.33,0-30.49,0-1.27-.19-2.55-.29-3.93H288a4.21,4.21,0,0,0-.45,1.18c0,12.49-.11,25,0,37.47.06,5.74,2.95,10.17,7.56,13.39A24.48,24.48,0,0,0,314.58,199c11.27-2.31,17.72-9.86,17.22-20.93-.46-10-.1-20-.1-30v-5ZM435.88,143v5.47c0,10,0,20,0,30,0,2.38,0,4.79-2.25,6.26a10.76,10.76,0,0,1-10.45,1.06c-3.62-1.47-4.56-4.38-4.53-8.06.11-10.33.06-20.66,0-31a32.47,32.47,0,0,0-.37-3.59H405.53c0,13.35-.15,26.33.07,39.31.09,5.52,3.21,9.72,7.67,12.79a24.46,24.46,0,0,0,18.08,4c11.22-1.74,19-9.2,18.45-20.9-.46-10.47-.09-21-.11-31.48,0-1.26-.22-2.52-.34-3.85ZM377,155.77v42.6h14.35v-42.9h13.08V143H363.8v12.74Zm-5.4,29.91H351.42V143.13H337.69v55.12h33.87ZM330.16,60.43l10.71-12.5-15.8-5.42c-2.75,5.92-5.74,11.49-7.78,17.92Z"/><path class="cls-7" d="M523.66,142.47H530l23.52,50.66.84-.2V143.12h14.13v42.64h20v12.55H541.1c-1-1.84-2.08-4-3.33-6.41H516c-1,1.85-2.13,4-3.42,6.42H486.36l-9.27-15.73h-7.36v15.77h-14V142.78c2.15,0,4.26,0,6.37,0,6.81.14,13.64.07,20.43.54,8.37.57,14,5.22,16.3,13.19s.84,15.15-5.52,20.94L491.65,179l8.64,14C508.25,175.75,516,159.08,523.66,142.47Zm-53.87,27c3.31,0,6.43.09,9.54,0,3.78-.13,6-2.44,6.25-6.28.28-4.22-1.7-7.14-5.54-7.47-3.39-.29-6.83-.06-10.25-.06ZM533,179.28c-2-4.74-3.94-9.11-6.25-14.43l-6.08,14.43Z"/><path class="cls-7" d="M554.75,136.61c-19.52.21-36.09-13.51-36-36.14.11-23.6,17.19-35.7,35.13-36,18.19-.34,36.49,11.61,36.47,36.16C590.35,123.38,573.9,136.63,554.75,136.61Zm17.12-36.78c0-.29,0-1.12-.1-2-.61-8.56-6.18-14.57-14.91-16.11-7.39-1.29-15.23,3.27-18.32,10.69-1.79,4.3-1.61,8.83-.87,13.23,1.55,9.32,11.35,15.57,20.54,13.4C567.1,117,571.94,110.36,571.87,99.83Z"/><path class="cls-7" d="M229.94,65.5h6.35l35.07,34V65.78h17.89v69.28H283c-5.42-5.28-11.13-10.84-16.83-16.41s-11.1-10.9-17.55-17.24c-.61,6.45-.27,11.8-.33,17.11s0,10.89,0,16.57H229.94Z"/><path class="cls-7" d="M407.12,108.7h16.69c-.74,8.67-4.4,15.53-11.09,20.51-15.77,11.73-41,8.17-52-9-9.86-15.43-8-46.09,19.92-54.07a36.52,36.52,0,0,1,27.57,2.65c8.93,4.58,13.81,12,15.51,22.23H406.54c-.32-.54-.7-1.07-1-1.65-3.85-7.68-10-9-18.15-7.93-6.32.86-11.33,6.24-12.91,13a22.58,22.58,0,0,0,2.74,17.67c6.6,10.87,24.55,9.75,28.64-1.37A10.07,10.07,0,0,1,407.12,108.7Z"/><path class="cls-7" d="M297.21,65.7H313.7v5.08c0,12.81.08,25.63,0,38.44,0,4.15.89,7.62,4.83,9.6a12.22,12.22,0,0,0,12.78-.64c2.6-1.66,3.5-4.13,3.47-7.25-.11-13.31,0-26.62,0-39.93V65.78H352c.08,1.47.22,2.93.22,4.38q0,19.47,0,38.94c0,18.16-14.72,30.27-32.63,26.71a41.75,41.75,0,0,1-9.86-3.24c-8.38-4-12.83-11-13-20.25-.27-15.14,0-30.29,0-45.43A4.89,4.89,0,0,1,297.21,65.7Z"/><path class="cls-7" d="M473.13,65.69h43.23V81.27H491V91.33h23.24v15.88H491v12.13h26.3V135H473.67C472.61,131.2,472.19,80.31,473.13,65.69Z"/><path class="cls-7" d="M284.63,163.22H270.8c-.41-.66-.94-1.48-1.42-2.32-4.88-8.46-19.33-7.05-23,1.74-2.27,5.37-2.42,10.57.07,15.86,2.37,5.06,6.6,7.77,11.85,7.7,6.53-.09,9.59-1.89,12.82-8.61h13.56c-.77,7.52-4.22,13.2-10.16,17.09-14.68,9.61-36.72,3.95-42.87-13.23-4.15-11.58-1.37-25.79,9.21-33.65,9.61-7.15,25-7.4,34.6-.3C280.65,151.39,283.34,156.69,284.63,163.22Z"/><path class="cls-7" d="M427.84,65.62H445.5v53.7h24.92v15.82H428.33C427.31,131.49,426.9,78.76,427.84,65.62Z"/><path class="cls-7" d="M318.1,143.1h13.6v5c0,10-.36,20,.1,30,.5,11.07-5.95,18.62-17.22,20.93a24.48,24.48,0,0,1-19.51-3.92c-4.61-3.22-7.5-7.65-7.56-13.39-.12-12.49,0-25,0-37.47a4.21,4.21,0,0,1,.45-1.18H300.4c.1,1.38.29,2.66.29,3.93,0,10.16.08,20.33,0,30.49,0,3.4.56,6.32,3.83,8a10.89,10.89,0,0,0,10.53-.33c2.54-1.34,2.89-3.79,2.87-6.44-.06-10.16,0-20.32,0-30.49C317.89,146.62,318,145,318.1,143.1Z"/><path class="cls-7" d="M435.88,143h13.47c.12,1.33.33,2.59.34,3.85,0,10.49-.35,21,.11,31.48.52,11.7-7.23,19.16-18.45,20.9a24.46,24.46,0,0,1-18.08-4c-4.46-3.07-7.58-7.27-7.67-12.79-.22-13-.07-26-.07-39.31h12.78a32.47,32.47,0,0,1,.37,3.59c0,10.33.09,20.66,0,31,0,3.68.91,6.59,4.53,8.06a10.76,10.76,0,0,0,10.45-1.06c2.25-1.47,2.25-3.88,2.25-6.26,0-10,0-20,0-30Z"/><path class="cls-7" d="M377,155.77H363.8V143h40.59v12.44H391.31v42.9H377Z"/><path class="cls-7" d="M371.56,185.68v12.57H337.69V143.13h13.73v42.55Z"/><path class="cls-7" d="M330.16,60.43H317.29c2-6.43,5-12,7.78-17.92l15.8,5.42Z"/><path class="cls-1" d="M469.79,169.47V155.64c3.42,0,6.86-.23,10.25.06,3.84.33,5.82,3.25,5.54,7.47-.25,3.84-2.47,6.15-6.25,6.28C476.22,169.56,473.1,169.47,469.79,169.47Z"/><path class="cls-1" d="M533,179.28H520.69l6.08-14.43C529.08,170.17,531,174.54,533,179.28Z"/><path class="cls-1" d="M571.87,99.83c.07,10.53-4.77,17.16-13.66,19.26-9.19,2.17-19-4.08-20.54-13.4-.74-4.4-.92-8.93.87-13.23,3.09-7.42,10.93-12,18.32-10.69,8.73,1.54,14.3,7.55,14.91,16.11C571.83,98.71,571.86,99.54,571.87,99.83Z"/></g></g></svg>