<svg xmlns="http://www.w3.org/2000/svg" viewBox="0 0 156.29 156.29"><defs><style>.cls-1{fill:none;stroke:#fe7e00;stroke-miterlimit:10;}.cls-2{fill:#f15a24;fill-rule:evenodd;}</style></defs><title>Ativo 1</title><g id="Camada_2" data-name="Camada 2"><g id="Layer_1" data-name="Layer 1"><circle class="cls-1" cx="78.14" cy="78.14" r="77.64"/><path class="cls-2" d="M56.45,88c2.06-9.58,11-16.79,21.69-16.79S97.79,78.37,99.84,88h8.86c-2.17-14.2-15-25.19-30.56-25.19S49.77,73.75,47.6,88Z"/><path class="cls-2" d="M78.14,54.36a4.32,4.32,0,0,0,4.43-4.2v-8.4a4.43,4.43,0,0,0-8.85,0v8.4A4.31,4.31,0,0,0,78.14,54.36Z"/><path class="cls-2" d="M118.85,53.55a4.6,4.6,0,0,0-6.26,0l-6.26,5.94a4,4,0,0,0,0,5.94,4.6,4.6,0,0,0,6.26,0l6.26-5.94A4,4,0,0,0,118.85,53.55Z"/><path class="cls-2" d="M50,59.49,43.7,53.55a4.6,4.6,0,0,0-6.26,0,4,4,0,0,0,0,5.94l6.26,5.94a4.6,4.6,0,0,0,6.26,0A4,4,0,0,0,50,59.49Z"/><path class="cls-2" d="M104.72,96.36H51.58a4.2,4.2,0,1,0,0,8.39h53.14a4.2,4.2,0,1,0,0-8.39Z"/><path class="cls-2" d="M95.86,113.16H60.43a4.2,4.2,0,1,0,0,8.39H95.86a4.2,4.2,0,1,0,0-8.39Z"/></g></g></svg>